<svg id="Capa_1" data-name="Capa 1" xmlns="http://www.w3.org/2000/svg" viewBox="0 0 96.66 92.12"><defs><style>.cls-1{fill:none;stroke:#fff;stroke-linecap:round;stroke-linejoin:round;stroke-width:2.19px;}.cls-2{fill:#00b4ec;}</style></defs><polygon class="cls-1" points="29.02 91.03 95.57 91.03 95.57 38.11 25.48 38.11 29.02 91.03"/><polygon class="cls-1" points="25.48 38.11 51.37 20.47 51.37 38.11 25.48 38.11"/><line class="cls-1" x1="51.37" y1="20.47" x2="51.37" y2="48.07"/><polygon class="cls-1" points="51.37 38.11 73.47 20.47 73.47 38.11 51.37 38.11"/><polygon class="cls-1" points="73.47 38.11 95.57 20.47 95.57 38.11 73.47 38.11"/><rect class="cls-2" x="35.46" y="63.07" width="11.47" height="11.47" rx="2.07"/><rect class="cls-2" x="55.63" y="63.07" width="11.47" height="11.47" rx="2.07"/><rect class="cls-2" x="75.8" y="63.07" width="11.47" height="11.47" rx="2.07"/><line class="cls-1" x1="73.47" y1="20.47" x2="73.47" y2="48.07"/><line class="cls-1" x1="9.6" y1="49.91" x2="20.65" y2="49.91"/><line class="cls-1" x1="9.6" y1="57.6" x2="20.65" y2="57.6"/><line class="cls-1" x1="9.6" y1="65.29" x2="20.65" y2="65.29"/><line class="cls-1" x1="9.6" y1="72.99" x2="20.65" y2="72.99"/><line class="cls-1" x1="9.6" y1="80.68" x2="20.65" y2="80.68"/><polygon class="cls-1" points="1.09 91.03 7.11 1.16 22.81 1.09 29.16 91.03 1.09 91.03"/></svg>