<svg id="Capa_1" data-name="Capa 1" xmlns="http://www.w3.org/2000/svg" viewBox="0 0 97.35 92.87"><defs><style>.cls-1{fill:none;stroke:#fff;stroke-linecap:round;stroke-linejoin:round;stroke-width:1.94px;}.cls-2{fill:#00b4ec;}</style></defs><path class="cls-1" d="M28.89,91.9h62a5.48,5.48,0,0,0,5.49-5.48V41.29H25.3Z"/><polygon class="cls-1" points="25.3 41.28 51.56 25.44 51.56 41.28 25.3 41.28"/><polygon class="cls-1" points="51.56 41.28 73.97 25.44 73.97 41.28 51.56 41.28"/><polygon class="cls-1" points="73.97 41.28 96.38 25.44 96.38 41.28 73.97 41.28"/><rect class="cls-2" x="35.42" y="66.59" width="11.63" height="11.63" rx="2.1"/><rect class="cls-2" x="55.87" y="66.59" width="11.63" height="11.63" rx="2.1"/><rect class="cls-2" x="76.32" y="66.59" width="11.63" height="11.63" rx="2.1"/><line class="cls-1" x1="9.19" y1="53.25" x2="20.4" y2="53.25"/><line class="cls-1" x1="9.19" y1="61.05" x2="20.4" y2="61.05"/><line class="cls-1" x1="9.19" y1="68.85" x2="20.4" y2="68.85"/><line class="cls-1" x1="9.19" y1="76.65" x2="20.4" y2="76.65"/><line class="cls-1" x1="9.19" y1="84.46" x2="20.4" y2="84.46"/><path class="cls-1" d="M1,86,6.67,5.85A4.71,4.71,0,0,1,10,1.66a16.31,16.31,0,0,1,9.25,0A4.71,4.71,0,0,1,22.6,5.79L29,91.9H6.45A5.47,5.47,0,0,1,1,86Z"/></svg>