<svg id="Capa_1" data-name="Capa 1" xmlns="http://www.w3.org/2000/svg" viewBox="0 0 134.04 27.23"><defs><style>.cls-1{fill:#fff;}</style></defs><path class="cls-1" d="M22.56,9.85H18.13c-1.19,0-2.41.44-2.41,3.77s1.22,3.76,2.41,3.76h4.43c1.19,0,2.41-.45,2.41-3.76S23.75,9.85,22.56,9.85ZM33.34,0h-26A7.32,7.32,0,0,0,0,7.32V19.91a7.32,7.32,0,0,0,7.32,7.32H33.37a7.32,7.32,0,0,0,7.32-7.32V7.32A7.35,7.35,0,0,0,33.34,0ZM12.08,19.19H10.4V9.73H9.15V8h2.93Zm13.85-1.9A3.42,3.42,0,0,1,22.73,19H18a3.41,3.41,0,0,1-3.2-1.73A7.37,7.37,0,0,1,14,13.62a7.46,7.46,0,0,1,.74-3.69A3.42,3.42,0,0,1,18,8.21h4.77a3.43,3.43,0,0,1,3.2,1.72,7.57,7.57,0,0,1,.74,3.69A7.49,7.49,0,0,1,25.93,17.29Zm5.34,1.9H29.59V9.73H28.34V8h2.93Z"/><path class="cls-1" d="M56,12.66h0l-3.76,0a11.88,11.88,0,0,1-2.64-.23c-.62-.18-.83-.41-.83-1.43,0-.81.22-1.18.85-1.42a13.68,13.68,0,0,1,4-.35,10.73,10.73,0,0,1,2.92.28c.66.22.82.42.82,1.49v.32h1.79v-.15c0-1.5-.22-2.09-.89-2.63s-2-.89-4.58-.89a33,33,0,0,0-3.39.17,4.14,4.14,0,0,0-2.48.84A2.86,2.86,0,0,0,46.91,11a3,3,0,0,0,1,2.55,5.21,5.21,0,0,0,3.2.74c5.38,0,5.38,0,5.9.17s.7.44.7,1.47-.31,1.38-.94,1.52h0a20,20,0,0,1-3.51.25,16.23,16.23,0,0,1-3.93-.25c-.46-.18-.57-.34-.6-1.64v-.38H47l0,.14c0,.19,0,.44,0,.51,0,1.45.26,2.08,1.08,2.61s1.71.58,4.25.58c3.34,0,5-.17,5.84-.59h0c.94-.49,1.38-1.4,1.38-2.87a3.45,3.45,0,0,0-.51-2C58.44,13,57.62,12.66,56,12.66Zm30,3.33c0,1,0,1.21-.21,1.45s-.59.47-1.63.47-1.62-.14-1.9-.48S82,17.15,82,15.69V12.46h5.38V11.09H82V9.16H80.43v1.93H78.54v1.37h1.89v3.62a3.48,3.48,0,0,0,.46,2.27c.48.67,1.38.94,3.1.94a6.17,6.17,0,0,0,1.94-.23A1.92,1.92,0,0,0,87,18.27,3.73,3.73,0,0,0,87.46,16v-.64H85.94Zm-19.08-5.1H63.37a2.61,2.61,0,0,0-2.46,1.36A5.62,5.62,0,0,0,60.35,15a5.66,5.66,0,0,0,.56,2.8,2.61,2.61,0,0,0,2.46,1.35h3.49a2.61,2.61,0,0,0,2.46-1.35,5.66,5.66,0,0,0,.56-2.8,5.65,5.65,0,0,0-.56-2.79A2.61,2.61,0,0,0,66.86,10.89Zm-.13,6.78H63.5c-.83,0-1.6-.31-1.6-2.63s.77-2.63,1.6-2.63h3.23c.83,0,1.6.32,1.6,2.63S67.56,17.67,66.73,17.67ZM73,8.43a3.51,3.51,0,0,0-.76,2.67H70.47v1.36H72.2v6.73h1.51V12.46H77.6V11.1H73.76V11h0c0-.93.11-1.34.39-1.58a3.61,3.61,0,0,1,2-.35L77.6,9V7.62l-1.55.06C74.37,7.72,73.5,7.93,73,8.43Zm49.35,3.17c-.55-.48-1.19-.63-2.74-.63a6,6,0,0,0-2.64.32,2.17,2.17,0,0,0-.78.6v-.82h-1.52v8.1h1.52V15.42c0-1.45.16-2.14.57-2.53s1.4-.53,2.71-.53a2.78,2.78,0,0,1,1.77.34c.28.24.39.65.39,1.47v.71h1.55v-1A3,3,0,0,0,122.31,11.6ZM99.68,17.66,97.36,11.1H95.23L93,17.64,90,11.1h-1.7L92,19.19h2L96.3,12.7l2.32,6.49h2l3.71-8.09H102.6Zm32.76-1c-.05.49-.08.58-.24.75h0c-.35.41-1,.54-2.7.54-2.25,0-3.06-.14-3.49-.59a2.61,2.61,0,0,1-.52-1.75H134v-.15c0-1.91-.21-2.63-.82-3.35h0c-.75-.84-1.69-1.08-4.4-1.08a7.12,7.12,0,0,0-3.44.49c-1,.59-1.52,1.73-1.52,3.69,0,1.66.37,2.76,1.15,3.37s1.88.75,4.61.75a6.8,6.8,0,0,0,3.36-.57,2.25,2.25,0,0,0,1-2.08v-.16h-1.58Zm-3.65-4.24c3,0,3.55.44,3.6,1.83h-6.87C125.66,12.79,126.17,12.38,128.79,12.38ZM109.2,11h-.53c-1.76,0-2.89.3-3.55,1a2.59,2.59,0,0,0-.7,2v.24h1.49v-.24a1.2,1.2,0,0,1,.24-.9,4,4,0,0,1,2.5-.53h.5c1.61,0,2.41.2,2.69.5h0a2.24,2.24,0,0,1,.28,1.37h-3.94c-1.45,0-2.41,0-3.05.67a2.48,2.48,0,0,0-.56,1.8v.07a3.19,3.19,0,0,0,.23,1.28,1.7,1.7,0,0,0,1.3.94,12.36,12.36,0,0,0,2.44.15h.59c2,0,3-.1,3.7-.61a1.82,1.82,0,0,0,.67-1.13,8.88,8.88,0,0,0,.09-1.44v0c0-.29,0-.62,0-1s0-.42,0-.6a3.49,3.49,0,0,0-.69-2.52C112.23,11.18,111.08,11,109.2,11ZM112.1,16a9.28,9.28,0,0,1,0,1c0,.26-.09.33-.14.36a2,2,0,0,1-.93.24,17.2,17.2,0,0,1-1.86.07h-.52a8.25,8.25,0,0,1-2.34-.16.27.27,0,0,1-.17-.18,1.89,1.89,0,0,1,0-.54v-.06c0-.58.12-.72.13-.74h0s.14-.13.65-.17.87,0,1.44-.05h3.81Z"/></svg>